# xmcd
#
# Track frame offsets:
#	150
#	15032
#	33250
#	44700
#	59350
#	90625
#	110435
#	134920
#	151635
#	171050
#
# Disc length: 2527
#
# Revision: 2
# Processed by: cddbd v1.5.1PL0 Copyright (c) Steve Scherf et al.
# Submitted via: CDWizzard Release:4.14
# Normalized: r1:DSETVAR1,TDELIM( - )
#
DISCID=7709dd0a
DTITLE=Various Artist - Metal CD Collection 2
DYEAR=1900
DGENRE=
TTITLE0=Megadeth - Skin O' My Teeth
TTITLE1=Temple Of The Dog - Be My Saviour
TTITLE2=Skid Row - Psycho Therapy
TTITLE3=Blind Melon - Paper Scratcher
TTITLE4=Soundgarden - Slaves And Bulldozers
TTITLE5=Girlschool - My Ambition
TTITLE6=Stone Temple Pilots - Piece Of Pie
TTITLE7=Asia - Little Rich Boy
TTITLE8=Wildhearts - Liberty Cap
TTITLE9=UFO - Only You Can Rock Me
EXTD=
EXTT0=
EXTT1=
EXTT2=
EXTT3=
EXTT4=
EXTT5=
EXTT6=
EXTT7=
EXTT8=
EXTT9=
PLAYORDER=
